solid OpenSCAD_Model
  facet normal -1 0 0
    outer loop
      vertex -80 54.5 -1
      vertex -80 52.5 3
      vertex -80 54.5 11
    endloop
  endfacet
  facet normal -1 0 0
    outer loop
      vertex -80 54.5 -1
      vertex -80 50.5 1
      vertex -80 52.5 3
    endloop
  endfacet
  facet normal -1 0 0
    outer loop
      vertex -80 54.5 -1
      vertex -80 -48.5 1
      vertex -80 50.5 1
    endloop
  endfacet
  facet normal -1 0 0
    outer loop
      vertex -80 -48.5 1
      vertex -80 -50.5 3
      vertex -80 -48.5 3
    endloop
  endfacet
  facet normal -1 -0 0
    outer loop
      vertex -80 -50.5 3
      vertex -80 -52.5 -1
      vertex -80 -50.5 7
    endloop
  endfacet
  facet normal -1 -0 0
    outer loop
      vertex -80 -48.5 1
      vertex -80 -52.5 -1
      vertex -80 -50.5 3
    endloop
  endfacet
  facet normal -1 0 0
    outer loop
      vertex -80 -52.5 -1
      vertex -80 -48.5 1
      vertex -80 54.5 -1
    endloop
  endfacet
  facet normal -1 0 0
    outer loop
      vertex -80 52.5 7
      vertex -80 54.5 11
      vertex -80 52.5 3
    endloop
  endfacet
  facet normal -1 0 0
    outer loop
      vertex -80 50.5 11
      vertex -80 52.5 7
      vertex -80 50.5 7
    endloop
  endfacet
  facet normal -1 0 0
    outer loop
      vertex -80 52.5 7
      vertex -80 50.5 11
      vertex -80 54.5 11
    endloop
  endfacet
  facet normal -1 -0 0
    outer loop
      vertex -80 52.5 3
      vertex -80 50.5 1
      vertex -80 50.5 3
    endloop
  endfacet
  facet normal -1 0 0
    outer loop
      vertex -80 -50.5 7
      vertex -80 -48.5 11
      vertex -80 -48.5 7
    endloop
  endfacet
  facet normal -1 0 0
    outer loop
      vertex -80 -50.5 7
      vertex -80 -52.5 11
      vertex -80 -48.5 11
    endloop
  endfacet
  facet normal -1 0 0
    outer loop
      vertex -80 -52.5 11
      vertex -80 -50.5 7
      vertex -80 -52.5 -1
    endloop
  endfacet
  facet normal -0 0 1
    outer loop
      vertex -72 -21.5 1
      vertex -50 -23.5 1
      vertex -50 -21.5 1
    endloop
  endfacet
  facet normal 0 0 1
    outer loop
      vertex -50 -23.5 1
      vertex -72 -21.5 1
      vertex -72 -23.5 1
    endloop
  endfacet
  facet normal -0 0 1
    outer loop
      vertex -72 2.5 1
      vertex -50 0.5 1
      vertex -50 2.5 1
    endloop
  endfacet
  facet normal 0 0 1
    outer loop
      vertex -50 0.5 1
      vertex -72 2.5 1
      vertex -72 0.5 1
    endloop
  endfacet
  facet normal -0 0 1
    outer loop
      vertex -72 26.5 1
      vertex -50 24.5 1
      vertex -50 26.5 1
    endloop
  endfacet
  facet normal 0 0 1
    outer loop
      vertex -50 24.5 1
      vertex -72 26.5 1
      vertex -72 24.5 1
    endloop
  endfacet
  facet normal -0 0 1
    outer loop
      vertex -48 -21.5 1
      vertex -26 -23.5 1
      vertex -26 -21.5 1
    endloop
  endfacet
  facet normal 0 0 1
    outer loop
      vertex -26 -23.5 1
      vertex -48 -21.5 1
      vertex -48 -23.5 1
    endloop
  endfacet
  facet normal -0 0 1
    outer loop
      vertex -48 2.5 1
      vertex -26 0.5 1
      vertex -26 2.5 1
    endloop
  endfacet
  facet normal 0 0 1
    outer loop
      vertex -26 0.5 1
      vertex -48 2.5 1
      vertex -48 0.5 1
    endloop
  endfacet
  facet normal -0 0 1
    outer loop
      vertex -48 26.5 1
      vertex -26 24.5 1
      vertex -26 26.5 1
    endloop
  endfacet
  facet normal 0 0 1
    outer loop
      vertex -26 24.5 1
      vertex -48 26.5 1
      vertex -48 24.5 1
    endloop
  endfacet
  facet normal -0 0 1
    outer loop
      vertex -24 -21.5 1
      vertex -2 -23.5 1
      vertex -2 -21.5 1
    endloop
  endfacet
  facet normal 0 0 1
    outer loop
      vertex -2 -23.5 1
      vertex -24 -21.5 1
      vertex -24 -23.5 1
    endloop
  endfacet
  facet normal -0 0 1
    outer loop
      vertex -24 2.5 1
      vertex -2 0.5 1
      vertex -2 2.5 1
    endloop
  endfacet
  facet normal 0 0 1
    outer loop
      vertex -2 0.5 1
      vertex -24 2.5 1
      vertex -24 0.5 1
    endloop
  endfacet
  facet normal -0 0 1
    outer loop
      vertex -24 26.5 1
      vertex -2 24.5 1
      vertex -2 26.5 1
    endloop
  endfacet
  facet normal 0 0 1
    outer loop
      vertex -2 24.5 1
      vertex -24 26.5 1
      vertex -24 24.5 1
    endloop
  endfacet
  facet normal -0 0 1
    outer loop
      vertex 0 -21.5 1
      vertex 22 -23.5 1
      vertex 22 -21.5 1
    endloop
  endfacet
  facet normal 0 0 1
    outer loop
      vertex 22 -23.5 1
      vertex 0 -21.5 1
      vertex 0 -23.5 1
    endloop
  endfacet
  facet normal -0 0 1
    outer loop
      vertex 0 2.5 1
      vertex 22 0.5 1
      vertex 22 2.5 1
    endloop
  endfacet
  facet normal 0 0 1
    outer loop
      vertex 22 0.5 1
      vertex 0 2.5 1
      vertex 0 0.5 1
    endloop
  endfacet
  facet normal -0 0 1
    outer loop
      vertex 0 26.5 1
      vertex 22 24.5 1
      vertex 22 26.5 1
    endloop
  endfacet
  facet normal 0 0 1
    outer loop
      vertex 22 24.5 1
      vertex 0 26.5 1
      vertex 0 24.5 1
    endloop
  endfacet
  facet normal -0 0 1
    outer loop
      vertex 24 -21.5 1
      vertex 46 -23.5 1
      vertex 46 -21.5 1
    endloop
  endfacet
  facet normal 0 0 1
    outer loop
      vertex 46 -23.5 1
      vertex 24 -21.5 1
      vertex 24 -23.5 1
    endloop
  endfacet
  facet normal -0 0 1
    outer loop
      vertex 24 2.5 1
      vertex 46 0.5 1
      vertex 46 2.5 1
    endloop
  endfacet
  facet normal 0 0 1
    outer loop
      vertex 46 0.5 1
      vertex 24 2.5 1
      vertex 24 0.5 1
    endloop
  endfacet
  facet normal -0 0 1
    outer loop
      vertex 24 26.5 1
      vertex 46 24.5 1
      vertex 46 26.5 1
    endloop
  endfacet
  facet normal 0 0 1
    outer loop
      vertex 46 24.5 1
      vertex 24 26.5 1
      vertex 24 24.5 1
    endloop
  endfacet
  facet normal -0 0 1
    outer loop
      vertex 48 -21.5 1
      vertex 70 -23.5 1
      vertex 70 -21.5 1
    endloop
  endfacet
  facet normal 0 0 1
    outer loop
      vertex 70 -23.5 1
      vertex 48 -21.5 1
      vertex 48 -23.5 1
    endloop
  endfacet
  facet normal -0 0 1
    outer loop
      vertex 48 2.5 1
      vertex 70 0.5 1
      vertex 70 2.5 1
    endloop
  endfacet
  facet normal 0 0 1
    outer loop
      vertex 70 0.5 1
      vertex 48 2.5 1
      vertex 48 0.5 1
    endloop
  endfacet
  facet normal -0 0 1
    outer loop
      vertex 48 26.5 1
      vertex 70 24.5 1
      vertex 70 26.5 1
    endloop
  endfacet
  facet normal 0 0 1
    outer loop
      vertex 70 24.5 1
      vertex 48 26.5 1
      vertex 48 24.5 1
    endloop
  endfacet
  facet normal 0 0 1
    outer loop
      vertex 70 26.5 1
      vertex 80 50.5 1
      vertex 70 48.5 1
    endloop
  endfacet
  facet normal 0 0 1
    outer loop
      vertex 80 50.5 1
      vertex 48 48.5 1
      vertex 70 48.5 1
    endloop
  endfacet
  facet normal 0 0 1
    outer loop
      vertex 46 26.5 1
      vertex 48 26.5 1
      vertex 48 48.5 1
    endloop
  endfacet
  facet normal 0 0 1
    outer loop
      vertex 48 26.5 1
      vertex 46 26.5 1
      vertex 48 24.5 1
    endloop
  endfacet
  facet normal 0 0 1
    outer loop
      vertex 48 24.5 1
      vertex 46 24.5 1
      vertex 48 2.5 1
    endloop
  endfacet
  facet normal 0 0 1
    outer loop
      vertex 46 2.5 1
      vertex 48 2.5 1
      vertex 46 24.5 1
    endloop
  endfacet
  facet normal 0 0 1
    outer loop
      vertex 46 0.5 1
      vertex 48 0.5 1
      vertex 46 2.5 1
    endloop
  endfacet
  facet normal 0 0 1
    outer loop
      vertex 48 0.5 1
      vertex 46 0.5 1
      vertex 48 -21.5 1
    endloop
  endfacet
  facet normal 0 0 1
    outer loop
      vertex 46 26.5 1
      vertex 48 48.5 1
      vertex 46 48.5 1
    endloop
  endfacet
  facet normal 0 0 1
    outer loop
      vertex 80 50.5 1
      vertex 46 48.5 1
      vertex 48 48.5 1
    endloop
  endfacet
  facet normal 0 0 1
    outer loop
      vertex 80 50.5 1
      vertex 24 48.5 1
      vertex 46 48.5 1
    endloop
  endfacet
  facet normal 0 0 1
    outer loop
      vertex 22 26.5 1
      vertex 24 26.5 1
      vertex 24 48.5 1
    endloop
  endfacet
  facet normal 0 0 1
    outer loop
      vertex 24 26.5 1
      vertex 22 26.5 1
      vertex 24 24.5 1
    endloop
  endfacet
  facet normal 0 0 1
    outer loop
      vertex 24 24.5 1
      vertex 22 24.5 1
      vertex 24 2.5 1
    endloop
  endfacet
  facet normal 0 0 1
    outer loop
      vertex 22 2.5 1
      vertex 24 2.5 1
      vertex 22 24.5 1
    endloop
  endfacet
  facet normal 0 0 1
    outer loop
      vertex 22 0.5 1
      vertex 24 0.5 1
      vertex 22 2.5 1
    endloop
  endfacet
  facet normal 0 0 1
    outer loop
      vertex 24 0.5 1
      vertex 22 0.5 1
      vertex 24 -21.5 1
    endloop
  endfacet
  facet normal 0 0 1
    outer loop
      vertex 22 26.5 1
      vertex 24 48.5 1
      vertex 22 48.5 1
    endloop
  endfacet
  facet normal 0 0 1
    outer loop
      vertex 80 50.5 1
      vertex 22 48.5 1
      vertex 24 48.5 1
    endloop
  endfacet
  facet normal 0 0 1
    outer loop
      vertex 80 50.5 1
      vertex 0 48.5 1
      vertex 22 48.5 1
    endloop
  endfacet
  facet normal 0 0 1
    outer loop
      vertex -2 26.5 1
      vertex 0 26.5 1
      vertex 0 48.5 1
    endloop
  endfacet
  facet normal 0 0 1
    outer loop
      vertex 0 26.5 1
      vertex -2 26.5 1
      vertex 0 24.5 1
    endloop
  endfacet
  facet normal 0 0 1
    outer loop
      vertex 0 24.5 1
      vertex -2 24.5 1
      vertex 0 2.5 1
    endloop
  endfacet
  facet normal 0 0 1
    outer loop
      vertex -2 2.5 1
      vertex 0 2.5 1
      vertex -2 24.5 1
    endloop
  endfacet
  facet normal 0 0 1
    outer loop
      vertex -2 0.5 1
      vertex 0 0.5 1
      vertex -2 2.5 1
    endloop
  endfacet
  facet normal 0 0 1
    outer loop
      vertex 0 0.5 1
      vertex -2 0.5 1
      vertex 0 -21.5 1
    endloop
  endfacet
  facet normal 0 0 1
    outer loop
      vertex -2 26.5 1
      vertex 0 48.5 1
      vertex -2 48.5 1
    endloop
  endfacet
  facet normal 0 0 1
    outer loop
      vertex 80 50.5 1
      vertex -2 48.5 1
      vertex 0 48.5 1
    endloop
  endfacet
  facet normal -0 0 1
    outer loop
      vertex -80 50.5 1
      vertex -2 48.5 1
      vertex 80 50.5 1
    endloop
  endfacet
  facet normal 0 0 1
    outer loop
      vertex -26 26.5 1
      vertex -24 26.5 1
      vertex -24 48.5 1
    endloop
  endfacet
  facet normal 0 0 1
    outer loop
      vertex -24 26.5 1
      vertex -26 26.5 1
      vertex -24 24.5 1
    endloop
  endfacet
  facet normal 0 0 1
    outer loop
      vertex -24 24.5 1
      vertex -26 24.5 1
      vertex -24 2.5 1
    endloop
  endfacet
  facet normal 0 0 1
    outer loop
      vertex -26 2.5 1
      vertex -24 2.5 1
      vertex -26 24.5 1
    endloop
  endfacet
  facet normal 0 0 1
    outer loop
      vertex -26 0.5 1
      vertex -24 0.5 1
      vertex -26 2.5 1
    endloop
  endfacet
  facet normal 0 0 1
    outer loop
      vertex -24 0.5 1
      vertex -26 0.5 1
      vertex -24 -21.5 1
    endloop
  endfacet
  facet normal 0 0 1
    outer loop
      vertex -26 26.5 1
      vertex -24 48.5 1
      vertex -26 48.5 1
    endloop
  endfacet
  facet normal 0 0 1
    outer loop
      vertex -2 48.5 1
      vertex -80 50.5 1
      vertex -24 48.5 1
    endloop
  endfacet
  facet normal 0 0 1
    outer loop
      vertex -24 48.5 1
      vertex -80 50.5 1
      vertex -26 48.5 1
    endloop
  endfacet
  facet normal 0 0 1
    outer loop
      vertex -50 26.5 1
      vertex -48 26.5 1
      vertex -48 48.5 1
    endloop
  endfacet
  facet normal 0 0 1
    outer loop
      vertex -48 26.5 1
      vertex -50 26.5 1
      vertex -48 24.5 1
    endloop
  endfacet
  facet normal 0 0 1
    outer loop
      vertex -48 24.5 1
      vertex -50 24.5 1
      vertex -48 2.5 1
    endloop
  endfacet
  facet normal 0 0 1
    outer loop
      vertex -50 2.5 1
      vertex -48 2.5 1
      vertex -50 24.5 1
    endloop
  endfacet
  facet normal 0 0 1
    outer loop
      vertex -50 0.5 1
      vertex -48 0.5 1
      vertex -50 2.5 1
    endloop
  endfacet
  facet normal 0 0 1
    outer loop
      vertex -48 0.5 1
      vertex -50 0.5 1
      vertex -48 -21.5 1
    endloop
  endfacet
  facet normal 0 0 1
    outer loop
      vertex -50 26.5 1
      vertex -48 48.5 1
      vertex -50 48.5 1
    endloop
  endfacet
  facet normal 0 0 1
    outer loop
      vertex -26 48.5 1
      vertex -80 50.5 1
      vertex -48 48.5 1
    endloop
  endfacet
  facet normal 0 0 1
    outer loop
      vertex -48 48.5 1
      vertex -80 50.5 1
      vertex -50 48.5 1
    endloop
  endfacet
  facet normal 0 0 1
    outer loop
      vertex -80 50.5 1
      vertex -72 26.5 1
      vertex -72 48.5 1
    endloop
  endfacet
  facet normal 0 0 1
    outer loop
      vertex -72 26.5 1
      vertex -80 50.5 1
      vertex -72 24.5 1
    endloop
  endfacet
  facet normal 0 0 1
    outer loop
      vertex -72 24.5 1
      vertex -80 50.5 1
      vertex -72 2.5 1
    endloop
  endfacet
  facet normal 0 0 1
    outer loop
      vertex -72 2.5 1
      vertex -80 50.5 1
      vertex -72 0.5 1
    endloop
  endfacet
  facet normal 0 0 1
    outer loop
      vertex -80 -48.5 1
      vertex -72 0.5 1
      vertex -80 50.5 1
    endloop
  endfacet
  facet normal 0 0 1
    outer loop
      vertex -72 0.5 1
      vertex -80 -48.5 1
      vertex -72 -21.5 1
    endloop
  endfacet
  facet normal 0 0 1
    outer loop
      vertex -72 -21.5 1
      vertex -80 -48.5 1
      vertex -72 -23.5 1
    endloop
  endfacet
  facet normal 0 0 1
    outer loop
      vertex -50 48.5 1
      vertex -80 50.5 1
      vertex -72 48.5 1
    endloop
  endfacet
  facet normal 0 0 1
    outer loop
      vertex 70 24.5 1
      vertex 80 50.5 1
      vertex 70 26.5 1
    endloop
  endfacet
  facet normal 0 0 1
    outer loop
      vertex 70 2.5 1
      vertex 80 50.5 1
      vertex 70 24.5 1
    endloop
  endfacet
  facet normal 0 0 1
    outer loop
      vertex 80 50.5 1
      vertex 70 2.5 1
      vertex 80 -48.5 1
    endloop
  endfacet
  facet normal -0 0 1
    outer loop
      vertex 70 0.5 1
      vertex 80 -48.5 1
      vertex 70 2.5 1
    endloop
  endfacet
  facet normal -0 0 1
    outer loop
      vertex 70 -21.5 1
      vertex 80 -48.5 1
      vertex 70 0.5 1
    endloop
  endfacet
  facet normal -0 0 1
    outer loop
      vertex 70 -23.5 1
      vertex 80 -48.5 1
      vertex 70 -21.5 1
    endloop
  endfacet
  facet normal -0 0 1
    outer loop
      vertex 70 -45.5 1
      vertex 80 -48.5 1
      vertex 70 -23.5 1
    endloop
  endfacet
  facet normal -0 0 1
    outer loop
      vertex 48 -45.5 1
      vertex 80 -48.5 1
      vertex 70 -45.5 1
    endloop
  endfacet
  facet normal 0 0 1
    outer loop
      vertex 48 24.5 1
      vertex 46 26.5 1
      vertex 46 24.5 1
    endloop
  endfacet
  facet normal 0 0 1
    outer loop
      vertex 48 2.5 1
      vertex 46 2.5 1
      vertex 48 0.5 1
    endloop
  endfacet
  facet normal 0 0 1
    outer loop
      vertex 46 -21.5 1
      vertex 48 -21.5 1
      vertex 46 0.5 1
    endloop
  endfacet
  facet normal 0 0 1
    outer loop
      vertex 48 -21.5 1
      vertex 46 -21.5 1
      vertex 48 -23.5 1
    endloop
  endfacet
  facet normal 0 0 1
    outer loop
      vertex 46 -23.5 1
      vertex 48 -23.5 1
      vertex 46 -21.5 1
    endloop
  endfacet
  facet normal 0 0 1
    outer loop
      vertex 48 -23.5 1
      vertex 46 -23.5 1
      vertex 48 -45.5 1
    endloop
  endfacet
  facet normal 0 0 1
    outer loop
      vertex 46 -45.5 1
      vertex 48 -45.5 1
      vertex 46 -23.5 1
    endloop
  endfacet
  facet normal -0 0 1
    outer loop
      vertex 46 -45.5 1
      vertex 80 -48.5 1
      vertex 48 -45.5 1
    endloop
  endfacet
  facet normal -0 0 1
    outer loop
      vertex 24 -45.5 1
      vertex 80 -48.5 1
      vertex 46 -45.5 1
    endloop
  endfacet
  facet normal 0 0 1
    outer loop
      vertex 24 24.5 1
      vertex 22 26.5 1
      vertex 22 24.5 1
    endloop
  endfacet
  facet normal 0 0 1
    outer loop
      vertex 24 2.5 1
      vertex 22 2.5 1
      vertex 24 0.5 1
    endloop
  endfacet
  facet normal 0 0 1
    outer loop
      vertex 22 -21.5 1
      vertex 24 -21.5 1
      vertex 22 0.5 1
    endloop
  endfacet
  facet normal 0 0 1
    outer loop
      vertex 24 -21.5 1
      vertex 22 -21.5 1
      vertex 24 -23.5 1
    endloop
  endfacet
  facet normal 0 0 1
    outer loop
      vertex 22 -23.5 1
      vertex 24 -23.5 1
      vertex 22 -21.5 1
    endloop
  endfacet
  facet normal 0 0 1
    outer loop
      vertex 24 -23.5 1
      vertex 22 -23.5 1
      vertex 24 -45.5 1
    endloop
  endfacet
  facet normal 0 0 1
    outer loop
      vertex 22 -45.5 1
      vertex 24 -45.5 1
      vertex 22 -23.5 1
    endloop
  endfacet
  facet normal -0 0 1
    outer loop
      vertex 22 -45.5 1
      vertex 80 -48.5 1
      vertex 24 -45.5 1
    endloop
  endfacet
  facet normal -0 0 1
    outer loop
      vertex 0 -45.5 1
      vertex 80 -48.5 1
      vertex 22 -45.5 1
    endloop
  endfacet
  facet normal 0 0 1
    outer loop
      vertex 0 24.5 1
      vertex -2 26.5 1
      vertex -2 24.5 1
    endloop
  endfacet
  facet normal 0 0 1
    outer loop
      vertex 0 2.5 1
      vertex -2 2.5 1
      vertex 0 0.5 1
    endloop
  endfacet
  facet normal 0 0 1
    outer loop
      vertex -2 -21.5 1
      vertex 0 -21.5 1
      vertex -2 0.5 1
    endloop
  endfacet
  facet normal 0 0 1
    outer loop
      vertex 0 -21.5 1
      vertex -2 -21.5 1
      vertex 0 -23.5 1
    endloop
  endfacet
  facet normal 0 0 1
    outer loop
      vertex -2 -23.5 1
      vertex 0 -23.5 1
      vertex -2 -21.5 1
    endloop
  endfacet
  facet normal 0 0 1
    outer loop
      vertex 0 -23.5 1
      vertex -2 -23.5 1
      vertex 0 -45.5 1
    endloop
  endfacet
  facet normal 0 0 1
    outer loop
      vertex -2 -45.5 1
      vertex 0 -45.5 1
      vertex -2 -23.5 1
    endloop
  endfacet
  facet normal -0 0 1
    outer loop
      vertex -2 -45.5 1
      vertex 80 -48.5 1
      vertex 0 -45.5 1
    endloop
  endfacet
  facet normal 0 0 1
    outer loop
      vertex -80 -48.5 1
      vertex -2 -45.5 1
      vertex -24 -45.5 1
    endloop
  endfacet
  facet normal 0 0 1
    outer loop
      vertex -24 24.5 1
      vertex -26 26.5 1
      vertex -26 24.5 1
    endloop
  endfacet
  facet normal 0 0 1
    outer loop
      vertex -24 2.5 1
      vertex -26 2.5 1
      vertex -24 0.5 1
    endloop
  endfacet
  facet normal 0 0 1
    outer loop
      vertex -26 -21.5 1
      vertex -24 -21.5 1
      vertex -26 0.5 1
    endloop
  endfacet
  facet normal 0 0 1
    outer loop
      vertex -24 -21.5 1
      vertex -26 -21.5 1
      vertex -24 -23.5 1
    endloop
  endfacet
  facet normal 0 0 1
    outer loop
      vertex -26 -23.5 1
      vertex -24 -23.5 1
      vertex -26 -21.5 1
    endloop
  endfacet
  facet normal 0 0 1
    outer loop
      vertex -24 -23.5 1
      vertex -26 -23.5 1
      vertex -24 -45.5 1
    endloop
  endfacet
  facet normal 0 0 1
    outer loop
      vertex -26 -45.5 1
      vertex -24 -45.5 1
      vertex -26 -23.5 1
    endloop
  endfacet
  facet normal 0 0 1
    outer loop
      vertex -80 -48.5 1
      vertex -24 -45.5 1
      vertex -26 -45.5 1
    endloop
  endfacet
  facet normal 0 0 1
    outer loop
      vertex -80 -48.5 1
      vertex -26 -45.5 1
      vertex -48 -45.5 1
    endloop
  endfacet
  facet normal 0 0 1
    outer loop
      vertex -48 24.5 1
      vertex -50 26.5 1
      vertex -50 24.5 1
    endloop
  endfacet
  facet normal 0 0 1
    outer loop
      vertex -48 2.5 1
      vertex -50 2.5 1
      vertex -48 0.5 1
    endloop
  endfacet
  facet normal 0 0 1
    outer loop
      vertex -50 -21.5 1
      vertex -48 -21.5 1
      vertex -50 0.5 1
    endloop
  endfacet
  facet normal 0 0 1
    outer loop
      vertex -48 -21.5 1
      vertex -50 -21.5 1
      vertex -48 -23.5 1
    endloop
  endfacet
  facet normal 0 0 1
    outer loop
      vertex -50 -23.5 1
      vertex -48 -23.5 1
      vertex -50 -21.5 1
    endloop
  endfacet
  facet normal 0 0 1
    outer loop
      vertex -48 -23.5 1
      vertex -50 -23.5 1
      vertex -48 -45.5 1
    endloop
  endfacet
  facet normal 0 0 1
    outer loop
      vertex -50 -45.5 1
      vertex -48 -45.5 1
      vertex -50 -23.5 1
    endloop
  endfacet
  facet normal 0 0 1
    outer loop
      vertex -80 -48.5 1
      vertex -48 -45.5 1
      vertex -50 -45.5 1
    endloop
  endfacet
  facet normal 0 0 1
    outer loop
      vertex -80 -48.5 1
      vertex -50 -45.5 1
      vertex -72 -45.5 1
    endloop
  endfacet
  facet normal 0 0 1
    outer loop
      vertex -2 -45.5 1
      vertex -80 -48.5 1
      vertex 80 -48.5 1
    endloop
  endfacet
  facet normal 0 0 1
    outer loop
      vertex -72 -23.5 1
      vertex -80 -48.5 1
      vertex -72 -45.5 1
    endloop
  endfacet
  facet normal 1 0 0
    outer loop
      vertex 80 -48.5 11
      vertex 80 -50.5 7
      vertex 80 -48.5 7
    endloop
  endfacet
  facet normal 1 0 0
    outer loop
      vertex 80 -50.5 7
      vertex 80 -52.5 11
      vertex 80 -50.5 3
    endloop
  endfacet
  facet normal 1 -0 0
    outer loop
      vertex 80 -52.5 11
      vertex 80 -50.5 7
      vertex 80 -48.5 11
    endloop
  endfacet
  facet normal 1 0 0
    outer loop
      vertex 80 -48.5 3
      vertex 80 -50.5 3
      vertex 80 -48.5 1
    endloop
  endfacet
  facet normal 1 0 0
    outer loop
      vertex 80 54.5 11
      vertex 80 52.5 7
      vertex 80 54.5 -1
    endloop
  endfacet
  facet normal 1 -0 0
    outer loop
      vertex 80 50.5 11
      vertex 80 52.5 7
      vertex 80 54.5 11
    endloop
  endfacet
  facet normal 1 0 0
    outer loop
      vertex 80 52.5 7
      vertex 80 50.5 11
      vertex 80 50.5 7
    endloop
  endfacet
  facet normal 1 -0 0
    outer loop
      vertex 80 52.5 3
      vertex 80 54.5 -1
      vertex 80 52.5 7
    endloop
  endfacet
  facet normal 1 0 0
    outer loop
      vertex 80 50.5 1
      vertex 80 52.5 3
      vertex 80 50.5 3
    endloop
  endfacet
  facet normal 1 0 0
    outer loop
      vertex 80 52.5 3
      vertex 80 50.5 1
      vertex 80 54.5 -1
    endloop
  endfacet
  facet normal 1 -0 0
    outer loop
      vertex 80 -48.5 1
      vertex 80 54.5 -1
      vertex 80 50.5 1
    endloop
  endfacet
  facet normal 1 0 0
    outer loop
      vertex 80 -48.5 1
      vertex 80 -52.5 -1
      vertex 80 54.5 -1
    endloop
  endfacet
  facet normal 1 0 0
    outer loop
      vertex 80 -50.5 3
      vertex 80 -52.5 -1
      vertex 80 -48.5 1
    endloop
  endfacet
  facet normal 1 0 0
    outer loop
      vertex 80 -52.5 -1
      vertex 80 -50.5 3
      vertex 80 -52.5 11
    endloop
  endfacet
  facet normal 0 0 -1
    outer loop
      vertex -72 24.5 -1
      vertex -50 26.5 -1
      vertex -50 24.5 -1
    endloop
  endfacet
  facet normal -0 0 -1
    outer loop
      vertex -50 26.5 -1
      vertex -72 24.5 -1
      vertex -72 26.5 -1
    endloop
  endfacet
  facet normal 0 0 -1
    outer loop
      vertex -72 0.5 -1
      vertex -50 2.5 -1
      vertex -50 0.5 -1
    endloop
  endfacet
  facet normal -0 0 -1
    outer loop
      vertex -50 2.5 -1
      vertex -72 0.5 -1
      vertex -72 2.5 -1
    endloop
  endfacet
  facet normal 0 0 -1
    outer loop
      vertex -72 -23.5 -1
      vertex -50 -21.5 -1
      vertex -50 -23.5 -1
    endloop
  endfacet
  facet normal -0 0 -1
    outer loop
      vertex -50 -21.5 -1
      vertex -72 -23.5 -1
      vertex -72 -21.5 -1
    endloop
  endfacet
  facet normal 0 0 -1
    outer loop
      vertex -48 24.5 -1
      vertex -26 26.5 -1
      vertex -26 24.5 -1
    endloop
  endfacet
  facet normal -0 0 -1
    outer loop
      vertex -26 26.5 -1
      vertex -48 24.5 -1
      vertex -48 26.5 -1
    endloop
  endfacet
  facet normal 0 0 -1
    outer loop
      vertex -48 0.5 -1
      vertex -26 2.5 -1
      vertex -26 0.5 -1
    endloop
  endfacet
  facet normal -0 0 -1
    outer loop
      vertex -26 2.5 -1
      vertex -48 0.5 -1
      vertex -48 2.5 -1
    endloop
  endfacet
  facet normal 0 0 -1
    outer loop
      vertex -48 -23.5 -1
      vertex -26 -21.5 -1
      vertex -26 -23.5 -1
    endloop
  endfacet
  facet normal -0 0 -1
    outer loop
      vertex -26 -21.5 -1
      vertex -48 -23.5 -1
      vertex -48 -21.5 -1
    endloop
  endfacet
  facet normal 0 0 -1
    outer loop
      vertex -24 24.5 -1
      vertex -2 26.5 -1
      vertex -2 24.5 -1
    endloop
  endfacet
  facet normal -0 0 -1
    outer loop
      vertex -2 26.5 -1
      vertex -24 24.5 -1
      vertex -24 26.5 -1
    endloop
  endfacet
  facet normal 0 0 -1
    outer loop
      vertex -24 0.5 -1
      vertex -2 2.5 -1
      vertex -2 0.5 -1
    endloop
  endfacet
  facet normal -0 0 -1
    outer loop
      vertex -2 2.5 -1
      vertex -24 0.5 -1
      vertex -24 2.5 -1
    endloop
  endfacet
  facet normal 0 0 -1
    outer loop
      vertex -24 -23.5 -1
      vertex -2 -21.5 -1
      vertex -2 -23.5 -1
    endloop
  endfacet
  facet normal -0 0 -1
    outer loop
      vertex -2 -21.5 -1
      vertex -24 -23.5 -1
      vertex -24 -21.5 -1
    endloop
  endfacet
  facet normal 0 0 -1
    outer loop
      vertex 0 24.5 -1
      vertex 22 26.5 -1
      vertex 22 24.5 -1
    endloop
  endfacet
  facet normal -0 0 -1
    outer loop
      vertex 22 26.5 -1
      vertex 0 24.5 -1
      vertex 0 26.5 -1
    endloop
  endfacet
  facet normal 0 0 -1
    outer loop
      vertex 0 0.5 -1
      vertex 22 2.5 -1
      vertex 22 0.5 -1
    endloop
  endfacet
  facet normal -0 0 -1
    outer loop
      vertex 22 2.5 -1
      vertex 0 0.5 -1
      vertex 0 2.5 -1
    endloop
  endfacet
  facet normal 0 0 -1
    outer loop
      vertex 0 -23.5 -1
      vertex 22 -21.5 -1
      vertex 22 -23.5 -1
    endloop
  endfacet
  facet normal -0 0 -1
    outer loop
      vertex 22 -21.5 -1
      vertex 0 -23.5 -1
      vertex 0 -21.5 -1
    endloop
  endfacet
  facet normal 0 0 -1
    outer loop
      vertex 24 24.5 -1
      vertex 46 26.5 -1
      vertex 46 24.5 -1
    endloop
  endfacet
  facet normal -0 0 -1
    outer loop
      vertex 46 26.5 -1
      vertex 24 24.5 -1
      vertex 24 26.5 -1
    endloop
  endfacet
  facet normal 0 0 -1
    outer loop
      vertex 24 0.5 -1
      vertex 46 2.5 -1
      vertex 46 0.5 -1
    endloop
  endfacet
  facet normal -0 0 -1
    outer loop
      vertex 46 2.5 -1
      vertex 24 0.5 -1
      vertex 24 2.5 -1
    endloop
  endfacet
  facet normal 0 0 -1
    outer loop
      vertex 24 -23.5 -1
      vertex 46 -21.5 -1
      vertex 46 -23.5 -1
    endloop
  endfacet
  facet normal -0 0 -1
    outer loop
      vertex 46 -21.5 -1
      vertex 24 -23.5 -1
      vertex 24 -21.5 -1
    endloop
  endfacet
  facet normal 0 0 -1
    outer loop
      vertex 48 24.5 -1
      vertex 70 26.5 -1
      vertex 70 24.5 -1
    endloop
  endfacet
  facet normal -0 0 -1
    outer loop
      vertex 70 26.5 -1
      vertex 48 24.5 -1
      vertex 48 26.5 -1
    endloop
  endfacet
  facet normal 0 0 -1
    outer loop
      vertex 48 0.5 -1
      vertex 70 2.5 -1
      vertex 70 0.5 -1
    endloop
  endfacet
  facet normal -0 0 -1
    outer loop
      vertex 70 2.5 -1
      vertex 48 0.5 -1
      vertex 48 2.5 -1
    endloop
  endfacet
  facet normal 0 0 -1
    outer loop
      vertex 48 -23.5 -1
      vertex 70 -21.5 -1
      vertex 70 -23.5 -1
    endloop
  endfacet
  facet normal -0 0 -1
    outer loop
      vertex 70 -21.5 -1
      vertex 48 -23.5 -1
      vertex 48 -21.5 -1
    endloop
  endfacet
  facet normal 0 0 -1
    outer loop
      vertex 70 -23.5 -1
      vertex 80 -52.5 -1
      vertex 70 -45.5 -1
    endloop
  endfacet
  facet normal 0 0 -1
    outer loop
      vertex 80 -52.5 -1
      vertex 48 -45.5 -1
      vertex 70 -45.5 -1
    endloop
  endfacet
  facet normal 0 0 -1
    outer loop
      vertex 46 -23.5 -1
      vertex 48 -23.5 -1
      vertex 48 -45.5 -1
    endloop
  endfacet
  facet normal 0 0 -1
    outer loop
      vertex 48 -23.5 -1
      vertex 46 -23.5 -1
      vertex 48 -21.5 -1
    endloop
  endfacet
  facet normal 0 0 -1
    outer loop
      vertex 48 -21.5 -1
      vertex 46 -21.5 -1
      vertex 48 0.5 -1
    endloop
  endfacet
  facet normal 0 0 -1
    outer loop
      vertex 46 0.5 -1
      vertex 48 0.5 -1
      vertex 46 -21.5 -1
    endloop
  endfacet
  facet normal 0 0 -1
    outer loop
      vertex 46 2.5 -1
      vertex 48 2.5 -1
      vertex 46 0.5 -1
    endloop
  endfacet
  facet normal 0 0 -1
    outer loop
      vertex 48 2.5 -1
      vertex 46 2.5 -1
      vertex 48 24.5 -1
    endloop
  endfacet
  facet normal 0 0 -1
    outer loop
      vertex 46 -23.5 -1
      vertex 48 -45.5 -1
      vertex 46 -45.5 -1
    endloop
  endfacet
  facet normal 0 0 -1
    outer loop
      vertex 80 -52.5 -1
      vertex 46 -45.5 -1
      vertex 48 -45.5 -1
    endloop
  endfacet
  facet normal 0 0 -1
    outer loop
      vertex 80 -52.5 -1
      vertex 24 -45.5 -1
      vertex 46 -45.5 -1
    endloop
  endfacet
  facet normal 0 0 -1
    outer loop
      vertex 22 -23.5 -1
      vertex 24 -23.5 -1
      vertex 24 -45.5 -1
    endloop
  endfacet
  facet normal 0 0 -1
    outer loop
      vertex 24 -23.5 -1
      vertex 22 -23.5 -1
      vertex 24 -21.5 -1
    endloop
  endfacet
  facet normal 0 0 -1
    outer loop
      vertex 24 -21.5 -1
      vertex 22 -21.5 -1
      vertex 24 0.5 -1
    endloop
  endfacet
  facet normal 0 0 -1
    outer loop
      vertex 22 0.5 -1
      vertex 24 0.5 -1
      vertex 22 -21.5 -1
    endloop
  endfacet
  facet normal 0 0 -1
    outer loop
      vertex 22 2.5 -1
      vertex 24 2.5 -1
      vertex 22 0.5 -1
    endloop
  endfacet
  facet normal 0 0 -1
    outer loop
      vertex 24 2.5 -1
      vertex 22 2.5 -1
      vertex 24 24.5 -1
    endloop
  endfacet
  facet normal 0 0 -1
    outer loop
      vertex 22 -23.5 -1
      vertex 24 -45.5 -1
      vertex 22 -45.5 -1
    endloop
  endfacet
  facet normal 0 0 -1
    outer loop
      vertex 80 -52.5 -1
      vertex 22 -45.5 -1
      vertex 24 -45.5 -1
    endloop
  endfacet
  facet normal 0 0 -1
    outer loop
      vertex 80 -52.5 -1
      vertex 0 -45.5 -1
      vertex 22 -45.5 -1
    endloop
  endfacet
  facet normal 0 0 -1
    outer loop
      vertex -2 -23.5 -1
      vertex 0 -23.5 -1
      vertex 0 -45.5 -1
    endloop
  endfacet
  facet normal 0 0 -1
    outer loop
      vertex 0 -23.5 -1
      vertex -2 -23.5 -1
      vertex 0 -21.5 -1
    endloop
  endfacet
  facet normal 0 0 -1
    outer loop
      vertex 0 -21.5 -1
      vertex -2 -21.5 -1
      vertex 0 0.5 -1
    endloop
  endfacet
  facet normal 0 0 -1
    outer loop
      vertex -2 0.5 -1
      vertex 0 0.5 -1
      vertex -2 -21.5 -1
    endloop
  endfacet
  facet normal 0 0 -1
    outer loop
      vertex -2 2.5 -1
      vertex 0 2.5 -1
      vertex -2 0.5 -1
    endloop
  endfacet
  facet normal 0 0 -1
    outer loop
      vertex 0 2.5 -1
      vertex -2 2.5 -1
      vertex 0 24.5 -1
    endloop
  endfacet
  facet normal 0 0 -1
    outer loop
      vertex -2 -23.5 -1
      vertex 0 -45.5 -1
      vertex -2 -45.5 -1
    endloop
  endfacet
  facet normal 0 0 -1
    outer loop
      vertex 80 -52.5 -1
      vertex -2 -45.5 -1
      vertex 0 -45.5 -1
    endloop
  endfacet
  facet normal 0 0 -1
    outer loop
      vertex -80 -52.5 -1
      vertex -2 -45.5 -1
      vertex 80 -52.5 -1
    endloop
  endfacet
  facet normal 0 0 -1
    outer loop
      vertex -26 -23.5 -1
      vertex -24 -23.5 -1
      vertex -24 -45.5 -1
    endloop
  endfacet
  facet normal 0 0 -1
    outer loop
      vertex -24 -23.5 -1
      vertex -26 -23.5 -1
      vertex -24 -21.5 -1
    endloop
  endfacet
  facet normal 0 0 -1
    outer loop
      vertex -24 -21.5 -1
      vertex -26 -21.5 -1
      vertex -24 0.5 -1
    endloop
  endfacet
  facet normal 0 0 -1
    outer loop
      vertex -26 0.5 -1
      vertex -24 0.5 -1
      vertex -26 -21.5 -1
    endloop
  endfacet
  facet normal 0 0 -1
    outer loop
      vertex -26 2.5 -1
      vertex -24 2.5 -1
      vertex -26 0.5 -1
    endloop
  endfacet
  facet normal 0 0 -1
    outer loop
      vertex -24 2.5 -1
      vertex -26 2.5 -1
      vertex -24 24.5 -1
    endloop
  endfacet
  facet normal 0 0 -1
    outer loop
      vertex -26 -23.5 -1
      vertex -24 -45.5 -1
      vertex -26 -45.5 -1
    endloop
  endfacet
  facet normal -0 0 -1
    outer loop
      vertex -2 -45.5 -1
      vertex -80 -52.5 -1
      vertex -24 -45.5 -1
    endloop
  endfacet
  facet normal -0 0 -1
    outer loop
      vertex -24 -45.5 -1
      vertex -80 -52.5 -1
      vertex -26 -45.5 -1
    endloop
  endfacet
  facet normal 0 0 -1
    outer loop
      vertex -50 -23.5 -1
      vertex -48 -23.5 -1
      vertex -48 -45.5 -1
    endloop
  endfacet
  facet normal 0 0 -1
    outer loop
      vertex -48 -23.5 -1
      vertex -50 -23.5 -1
      vertex -48 -21.5 -1
    endloop
  endfacet
  facet normal 0 0 -1
    outer loop
      vertex -48 -21.5 -1
      vertex -50 -21.5 -1
      vertex -48 0.5 -1
    endloop
  endfacet
  facet normal 0 0 -1
    outer loop
      vertex -50 0.5 -1
      vertex -48 0.5 -1
      vertex -50 -21.5 -1
    endloop
  endfacet
  facet normal 0 0 -1
    outer loop
      vertex -50 2.5 -1
      vertex -48 2.5 -1
      vertex -50 0.5 -1
    endloop
  endfacet
  facet normal 0 0 -1
    outer loop
      vertex -48 2.5 -1
      vertex -50 2.5 -1
      vertex -48 24.5 -1
    endloop
  endfacet
  facet normal 0 0 -1
    outer loop
      vertex -50 -23.5 -1
      vertex -48 -45.5 -1
      vertex -50 -45.5 -1
    endloop
  endfacet
  facet normal -0 0 -1
    outer loop
      vertex -26 -45.5 -1
      vertex -80 -52.5 -1
      vertex -48 -45.5 -1
    endloop
  endfacet
  facet normal -0 0 -1
    outer loop
      vertex -48 -45.5 -1
      vertex -80 -52.5 -1
      vertex -50 -45.5 -1
    endloop
  endfacet
  facet normal 0 0 -1
    outer loop
      vertex -80 -52.5 -1
      vertex -72 -23.5 -1
      vertex -72 -45.5 -1
    endloop
  endfacet
  facet normal -0 0 -1
    outer loop
      vertex -72 -23.5 -1
      vertex -80 -52.5 -1
      vertex -72 -21.5 -1
    endloop
  endfacet
  facet normal -0 0 -1
    outer loop
      vertex -72 -21.5 -1
      vertex -80 -52.5 -1
      vertex -72 0.5 -1
    endloop
  endfacet
  facet normal -0 0 -1
    outer loop
      vertex -72 0.5 -1
      vertex -80 -52.5 -1
      vertex -72 2.5 -1
    endloop
  endfacet
  facet normal 0 0 -1
    outer loop
      vertex -80 54.5 -1
      vertex -72 2.5 -1
      vertex -80 -52.5 -1
    endloop
  endfacet
  facet normal 0 0 -1
    outer loop
      vertex -72 2.5 -1
      vertex -80 54.5 -1
      vertex -72 24.5 -1
    endloop
  endfacet
  facet normal 0 0 -1
    outer loop
      vertex -72 24.5 -1
      vertex -80 54.5 -1
      vertex -72 26.5 -1
    endloop
  endfacet
  facet normal -0 0 -1
    outer loop
      vertex -50 -45.5 -1
      vertex -80 -52.5 -1
      vertex -72 -45.5 -1
    endloop
  endfacet
  facet normal 0 0 -1
    outer loop
      vertex 70 -21.5 -1
      vertex 80 -52.5 -1
      vertex 70 -23.5 -1
    endloop
  endfacet
  facet normal 0 0 -1
    outer loop
      vertex 70 0.5 -1
      vertex 80 -52.5 -1
      vertex 70 -21.5 -1
    endloop
  endfacet
  facet normal 0 0 -1
    outer loop
      vertex 80 -52.5 -1
      vertex 70 0.5 -1
      vertex 80 54.5 -1
    endloop
  endfacet
  facet normal 0 0 -1
    outer loop
      vertex 70 2.5 -1
      vertex 80 54.5 -1
      vertex 70 0.5 -1
    endloop
  endfacet
  facet normal 0 0 -1
    outer loop
      vertex 70 24.5 -1
      vertex 80 54.5 -1
      vertex 70 2.5 -1
    endloop
  endfacet
  facet normal 0 0 -1
    outer loop
      vertex 70 26.5 -1
      vertex 80 54.5 -1
      vertex 70 24.5 -1
    endloop
  endfacet
  facet normal 0 0 -1
    outer loop
      vertex 70 48.5 -1
      vertex 80 54.5 -1
      vertex 70 26.5 -1
    endloop
  endfacet
  facet normal 0 0 -1
    outer loop
      vertex 48 48.5 -1
      vertex 80 54.5 -1
      vertex 70 48.5 -1
    endloop
  endfacet
  facet normal -0 0 -1
    outer loop
      vertex 48 -21.5 -1
      vertex 46 -23.5 -1
      vertex 46 -21.5 -1
    endloop
  endfacet
  facet normal 0 0 -1
    outer loop
      vertex 48 0.5 -1
      vertex 46 0.5 -1
      vertex 48 2.5 -1
    endloop
  endfacet
  facet normal 0 0 -1
    outer loop
      vertex 46 24.5 -1
      vertex 48 24.5 -1
      vertex 46 2.5 -1
    endloop
  endfacet
  facet normal 0 0 -1
    outer loop
      vertex 48 24.5 -1
      vertex 46 24.5 -1
      vertex 48 26.5 -1
    endloop
  endfacet
  facet normal 0 0 -1
    outer loop
      vertex 46 26.5 -1
      vertex 48 26.5 -1
      vertex 46 24.5 -1
    endloop
  endfacet
  facet normal 0 0 -1
    outer loop
      vertex 48 26.5 -1
      vertex 46 26.5 -1
      vertex 48 48.5 -1
    endloop
  endfacet
  facet normal 0 0 -1
    outer loop
      vertex 46 48.5 -1
      vertex 48 48.5 -1
      vertex 46 26.5 -1
    endloop
  endfacet
  facet normal 0 0 -1
    outer loop
      vertex 46 48.5 -1
      vertex 80 54.5 -1
      vertex 48 48.5 -1
    endloop
  endfacet
  facet normal 0 0 -1
    outer loop
      vertex 24 48.5 -1
      vertex 80 54.5 -1
      vertex 46 48.5 -1
    endloop
  endfacet
  facet normal -0 0 -1
    outer loop
      vertex 24 -21.5 -1
      vertex 22 -23.5 -1
      vertex 22 -21.5 -1
    endloop
  endfacet
  facet normal 0 0 -1
    outer loop
      vertex 24 0.5 -1
      vertex 22 0.5 -1
      vertex 24 2.5 -1
    endloop
  endfacet
  facet normal 0 0 -1
    outer loop
      vertex 22 24.5 -1
      vertex 24 24.5 -1
      vertex 22 2.5 -1
    endloop
  endfacet
  facet normal 0 0 -1
    outer loop
      vertex 24 24.5 -1
      vertex 22 24.5 -1
      vertex 24 26.5 -1
    endloop
  endfacet
  facet normal 0 0 -1
    outer loop
      vertex 22 26.5 -1
      vertex 24 26.5 -1
      vertex 22 24.5 -1
    endloop
  endfacet
  facet normal 0 0 -1
    outer loop
      vertex 24 26.5 -1
      vertex 22 26.5 -1
      vertex 24 48.5 -1
    endloop
  endfacet
  facet normal 0 0 -1
    outer loop
      vertex 22 48.5 -1
      vertex 24 48.5 -1
      vertex 22 26.5 -1
    endloop
  endfacet
  facet normal 0 0 -1
    outer loop
      vertex 22 48.5 -1
      vertex 80 54.5 -1
      vertex 24 48.5 -1
    endloop
  endfacet
  facet normal 0 0 -1
    outer loop
      vertex 0 48.5 -1
      vertex 80 54.5 -1
      vertex 22 48.5 -1
    endloop
  endfacet
  facet normal -0 0 -1
    outer loop
      vertex 0 -21.5 -1
      vertex -2 -23.5 -1
      vertex -2 -21.5 -1
    endloop
  endfacet
  facet normal 0 0 -1
    outer loop
      vertex 0 0.5 -1
      vertex -2 0.5 -1
      vertex 0 2.5 -1
    endloop
  endfacet
  facet normal 0 0 -1
    outer loop
      vertex -2 24.5 -1
      vertex 0 24.5 -1
      vertex -2 2.5 -1
    endloop
  endfacet
  facet normal 0 0 -1
    outer loop
      vertex 0 24.5 -1
      vertex -2 24.5 -1
      vertex 0 26.5 -1
    endloop
  endfacet
  facet normal 0 0 -1
    outer loop
      vertex -2 26.5 -1
      vertex 0 26.5 -1
      vertex -2 24.5 -1
    endloop
  endfacet
  facet normal 0 0 -1
    outer loop
      vertex 0 26.5 -1
      vertex -2 26.5 -1
      vertex 0 48.5 -1
    endloop
  endfacet
  facet normal 0 0 -1
    outer loop
      vertex -2 48.5 -1
      vertex 0 48.5 -1
      vertex -2 26.5 -1
    endloop
  endfacet
  facet normal 0 0 -1
    outer loop
      vertex -2 48.5 -1
      vertex 80 54.5 -1
      vertex 0 48.5 -1
    endloop
  endfacet
  facet normal 0 0 -1
    outer loop
      vertex -80 54.5 -1
      vertex -2 48.5 -1
      vertex -24 48.5 -1
    endloop
  endfacet
  facet normal -0 0 -1
    outer loop
      vertex -24 -21.5 -1
      vertex -26 -23.5 -1
      vertex -26 -21.5 -1
    endloop
  endfacet
  facet normal 0 0 -1
    outer loop
      vertex -24 0.5 -1
      vertex -26 0.5 -1
      vertex -24 2.5 -1
    endloop
  endfacet
  facet normal 0 0 -1
    outer loop
      vertex -26 24.5 -1
      vertex -24 24.5 -1
      vertex -26 2.5 -1
    endloop
  endfacet
  facet normal 0 0 -1
    outer loop
      vertex -24 24.5 -1
      vertex -26 24.5 -1
      vertex -24 26.5 -1
    endloop
  endfacet
  facet normal 0 0 -1
    outer loop
      vertex -26 26.5 -1
      vertex -24 26.5 -1
      vertex -26 24.5 -1
    endloop
  endfacet
  facet normal 0 0 -1
    outer loop
      vertex -24 26.5 -1
      vertex -26 26.5 -1
      vertex -24 48.5 -1
    endloop
  endfacet
  facet normal 0 0 -1
    outer loop
      vertex -26 48.5 -1
      vertex -24 48.5 -1
      vertex -26 26.5 -1
    endloop
  endfacet
  facet normal 0 0 -1
    outer loop
      vertex -80 54.5 -1
      vertex -24 48.5 -1
      vertex -26 48.5 -1
    endloop
  endfacet
  facet normal 0 0 -1
    outer loop
      vertex -80 54.5 -1
      vertex -26 48.5 -1
      vertex -48 48.5 -1
    endloop
  endfacet
  facet normal -0 0 -1
    outer loop
      vertex -48 -21.5 -1
      vertex -50 -23.5 -1
      vertex -50 -21.5 -1
    endloop
  endfacet
  facet normal 0 0 -1
    outer loop
      vertex -48 0.5 -1
      vertex -50 0.5 -1
      vertex -48 2.5 -1
    endloop
  endfacet
  facet normal 0 0 -1
    outer loop
      vertex -50 24.5 -1
      vertex -48 24.5 -1
      vertex -50 2.5 -1
    endloop
  endfacet
  facet normal 0 0 -1
    outer loop
      vertex -48 24.5 -1
      vertex -50 24.5 -1
      vertex -48 26.5 -1
    endloop
  endfacet
  facet normal 0 0 -1
    outer loop
      vertex -50 26.5 -1
      vertex -48 26.5 -1
      vertex -50 24.5 -1
    endloop
  endfacet
  facet normal 0 0 -1
    outer loop
      vertex -48 26.5 -1
      vertex -50 26.5 -1
      vertex -48 48.5 -1
    endloop
  endfacet
  facet normal 0 0 -1
    outer loop
      vertex -50 48.5 -1
      vertex -48 48.5 -1
      vertex -50 26.5 -1
    endloop
  endfacet
  facet normal 0 0 -1
    outer loop
      vertex -80 54.5 -1
      vertex -48 48.5 -1
      vertex -50 48.5 -1
    endloop
  endfacet
  facet normal 0 0 -1
    outer loop
      vertex -80 54.5 -1
      vertex -50 48.5 -1
      vertex -72 48.5 -1
    endloop
  endfacet
  facet normal 0 0 -1
    outer loop
      vertex -2 48.5 -1
      vertex -80 54.5 -1
      vertex 80 54.5 -1
    endloop
  endfacet
  facet normal 0 0 -1
    outer loop
      vertex -72 26.5 -1
      vertex -80 54.5 -1
      vertex -72 48.5 -1
    endloop
  endfacet
  facet normal 0 -1 0
    outer loop
      vertex -80 -52.5 -1
      vertex 80 -52.5 11
      vertex -80 -52.5 11
    endloop
  endfacet
  facet normal 0 -1 -0
    outer loop
      vertex 80 -52.5 11
      vertex -80 -52.5 -1
      vertex 80 -52.5 -1
    endloop
  endfacet
  facet normal 0 -1 0
    outer loop
      vertex -80 52.5 3
      vertex 80 52.5 7
      vertex -80 52.5 7
    endloop
  endfacet
  facet normal 0 -1 -0
    outer loop
      vertex 80 52.5 7
      vertex -80 52.5 3
      vertex 80 52.5 3
    endloop
  endfacet
  facet normal 0 0 -1
    outer loop
      vertex -80 50.5 7
      vertex 80 52.5 7
      vertex 80 50.5 7
    endloop
  endfacet
  facet normal -0 0 -1
    outer loop
      vertex 80 52.5 7
      vertex -80 50.5 7
      vertex -80 52.5 7
    endloop
  endfacet
  facet normal 0 1 -0
    outer loop
      vertex 80 54.5 -1
      vertex -80 54.5 11
      vertex 80 54.5 11
    endloop
  endfacet
  facet normal 0 1 0
    outer loop
      vertex -80 54.5 11
      vertex 80 54.5 -1
      vertex -80 54.5 -1
    endloop
  endfacet
  facet normal -0 0 1
    outer loop
      vertex -80 52.5 3
      vertex 80 50.5 3
      vertex 80 52.5 3
    endloop
  endfacet
  facet normal 0 0 1
    outer loop
      vertex 80 50.5 3
      vertex -80 52.5 3
      vertex -80 50.5 3
    endloop
  endfacet
  facet normal 0 -1 0
    outer loop
      vertex -80 50.5 1
      vertex 80 50.5 3
      vertex -80 50.5 3
    endloop
  endfacet
  facet normal 0 -1 -0
    outer loop
      vertex 80 50.5 3
      vertex -80 50.5 1
      vertex 80 50.5 1
    endloop
  endfacet
  facet normal -0 0 1
    outer loop
      vertex -80 54.5 11
      vertex 80 50.5 11
      vertex 80 54.5 11
    endloop
  endfacet
  facet normal 0 0 1
    outer loop
      vertex 80 50.5 11
      vertex -80 54.5 11
      vertex -80 50.5 11
    endloop
  endfacet
  facet normal 0 -1 0
    outer loop
      vertex -80 50.5 7
      vertex 80 50.5 11
      vertex -80 50.5 11
    endloop
  endfacet
  facet normal 0 -1 -0
    outer loop
      vertex 80 50.5 11
      vertex -80 50.5 7
      vertex 80 50.5 7
    endloop
  endfacet
  facet normal 0 0 -1
    outer loop
      vertex -80 -50.5 7
      vertex 80 -48.5 7
      vertex 80 -50.5 7
    endloop
  endfacet
  facet normal -0 0 -1
    outer loop
      vertex 80 -48.5 7
      vertex -80 -50.5 7
      vertex -80 -48.5 7
    endloop
  endfacet
  facet normal 0 1 -0
    outer loop
      vertex 80 -50.5 3
      vertex -80 -50.5 7
      vertex 80 -50.5 7
    endloop
  endfacet
  facet normal 0 1 0
    outer loop
      vertex -80 -50.5 7
      vertex 80 -50.5 3
      vertex -80 -50.5 3
    endloop
  endfacet
  facet normal -0 0 1
    outer loop
      vertex -80 -48.5 3
      vertex 80 -50.5 3
      vertex 80 -48.5 3
    endloop
  endfacet
  facet normal 0 0 1
    outer loop
      vertex 80 -50.5 3
      vertex -80 -48.5 3
      vertex -80 -50.5 3
    endloop
  endfacet
  facet normal 0 1 -0
    outer loop
      vertex 80 -48.5 1
      vertex -80 -48.5 3
      vertex 80 -48.5 3
    endloop
  endfacet
  facet normal 0 1 0
    outer loop
      vertex -80 -48.5 3
      vertex 80 -48.5 1
      vertex -80 -48.5 1
    endloop
  endfacet
  facet normal -0 0 1
    outer loop
      vertex -80 -48.5 11
      vertex 80 -52.5 11
      vertex 80 -48.5 11
    endloop
  endfacet
  facet normal 0 0 1
    outer loop
      vertex 80 -52.5 11
      vertex -80 -48.5 11
      vertex -80 -52.5 11
    endloop
  endfacet
  facet normal 0 1 -0
    outer loop
      vertex 80 -48.5 7
      vertex -80 -48.5 11
      vertex 80 -48.5 11
    endloop
  endfacet
  facet normal 0 1 0
    outer loop
      vertex -80 -48.5 11
      vertex 80 -48.5 7
      vertex -80 -48.5 7
    endloop
  endfacet
  facet normal 1 -0 0
    outer loop
      vertex -72 -45.5 1
      vertex -72 -23.5 -1
      vertex -72 -23.5 1
    endloop
  endfacet
  facet normal 1 0 0
    outer loop
      vertex -72 -23.5 -1
      vertex -72 -45.5 1
      vertex -72 -45.5 -1
    endloop
  endfacet
  facet normal -1 0 0
    outer loop
      vertex -50 -45.5 -1
      vertex -50 -23.5 1
      vertex -50 -23.5 -1
    endloop
  endfacet
  facet normal -1 -0 0
    outer loop
      vertex -50 -23.5 1
      vertex -50 -45.5 -1
      vertex -50 -45.5 1
    endloop
  endfacet
  facet normal 0 -1 0
    outer loop
      vertex -72 -23.5 -1
      vertex -50 -23.5 1
      vertex -72 -23.5 1
    endloop
  endfacet
  facet normal 0 -1 -0
    outer loop
      vertex -50 -23.5 1
      vertex -72 -23.5 -1
      vertex -50 -23.5 -1
    endloop
  endfacet
  facet normal 0 1 -0
    outer loop
      vertex -50 -45.5 -1
      vertex -72 -45.5 1
      vertex -50 -45.5 1
    endloop
  endfacet
  facet normal 0 1 0
    outer loop
      vertex -72 -45.5 1
      vertex -50 -45.5 -1
      vertex -72 -45.5 -1
    endloop
  endfacet
  facet normal 1 -0 0
    outer loop
      vertex -48 -45.5 1
      vertex -48 -23.5 -1
      vertex -48 -23.5 1
    endloop
  endfacet
  facet normal 1 0 0
    outer loop
      vertex -48 -23.5 -1
      vertex -48 -45.5 1
      vertex -48 -45.5 -1
    endloop
  endfacet
  facet normal -1 0 0
    outer loop
      vertex -26 -45.5 -1
      vertex -26 -23.5 1
      vertex -26 -23.5 -1
    endloop
  endfacet
  facet normal -1 -0 0
    outer loop
      vertex -26 -23.5 1
      vertex -26 -45.5 -1
      vertex -26 -45.5 1
    endloop
  endfacet
  facet normal 0 1 -0
    outer loop
      vertex -26 -45.5 -1
      vertex -48 -45.5 1
      vertex -26 -45.5 1
    endloop
  endfacet
  facet normal 0 1 0
    outer loop
      vertex -48 -45.5 1
      vertex -26 -45.5 -1
      vertex -48 -45.5 -1
    endloop
  endfacet
  facet normal 0 -1 0
    outer loop
      vertex -48 -23.5 -1
      vertex -26 -23.5 1
      vertex -48 -23.5 1
    endloop
  endfacet
  facet normal 0 -1 -0
    outer loop
      vertex -26 -23.5 1
      vertex -48 -23.5 -1
      vertex -26 -23.5 -1
    endloop
  endfacet
  facet normal 1 -0 0
    outer loop
      vertex -24 -45.5 1
      vertex -24 -23.5 -1
      vertex -24 -23.5 1
    endloop
  endfacet
  facet normal 1 0 0
    outer loop
      vertex -24 -23.5 -1
      vertex -24 -45.5 1
      vertex -24 -45.5 -1
    endloop
  endfacet
  facet normal -1 0 0
    outer loop
      vertex -2 -45.5 -1
      vertex -2 -23.5 1
      vertex -2 -23.5 -1
    endloop
  endfacet
  facet normal -1 -0 0
    outer loop
      vertex -2 -23.5 1
      vertex -2 -45.5 -1
      vertex -2 -45.5 1
    endloop
  endfacet
  facet normal 0 -1 0
    outer loop
      vertex -24 -23.5 -1
      vertex -2 -23.5 1
      vertex -24 -23.5 1
    endloop
  endfacet
  facet normal 0 -1 -0
    outer loop
      vertex -2 -23.5 1
      vertex -24 -23.5 -1
      vertex -2 -23.5 -1
    endloop
  endfacet
  facet normal 0 1 -0
    outer loop
      vertex -2 -45.5 -1
      vertex -24 -45.5 1
      vertex -2 -45.5 1
    endloop
  endfacet
  facet normal 0 1 0
    outer loop
      vertex -24 -45.5 1
      vertex -2 -45.5 -1
      vertex -24 -45.5 -1
    endloop
  endfacet
  facet normal 1 -0 0
    outer loop
      vertex 0 -45.5 1
      vertex 0 -23.5 -1
      vertex 0 -23.5 1
    endloop
  endfacet
  facet normal 1 0 0
    outer loop
      vertex 0 -23.5 -1
      vertex 0 -45.5 1
      vertex 0 -45.5 -1
    endloop
  endfacet
  facet normal -1 0 0
    outer loop
      vertex 22 -45.5 -1
      vertex 22 -23.5 1
      vertex 22 -23.5 -1
    endloop
  endfacet
  facet normal -1 -0 0
    outer loop
      vertex 22 -23.5 1
      vertex 22 -45.5 -1
      vertex 22 -45.5 1
    endloop
  endfacet
  facet normal 0 -1 0
    outer loop
      vertex 0 -23.5 -1
      vertex 22 -23.5 1
      vertex 0 -23.5 1
    endloop
  endfacet
  facet normal 0 -1 -0
    outer loop
      vertex 22 -23.5 1
      vertex 0 -23.5 -1
      vertex 22 -23.5 -1
    endloop
  endfacet
  facet normal 0 1 -0
    outer loop
      vertex 22 -45.5 -1
      vertex 0 -45.5 1
      vertex 22 -45.5 1
    endloop
  endfacet
  facet normal 0 1 0
    outer loop
      vertex 0 -45.5 1
      vertex 22 -45.5 -1
      vertex 0 -45.5 -1
    endloop
  endfacet
  facet normal 1 -0 0
    outer loop
      vertex 24 -45.5 1
      vertex 24 -23.5 -1
      vertex 24 -23.5 1
    endloop
  endfacet
  facet normal 1 0 0
    outer loop
      vertex 24 -23.5 -1
      vertex 24 -45.5 1
      vertex 24 -45.5 -1
    endloop
  endfacet
  facet normal -1 0 0
    outer loop
      vertex 46 -45.5 -1
      vertex 46 -23.5 1
      vertex 46 -23.5 -1
    endloop
  endfacet
  facet normal -1 -0 0
    outer loop
      vertex 46 -23.5 1
      vertex 46 -45.5 -1
      vertex 46 -45.5 1
    endloop
  endfacet
  facet normal 0 1 -0
    outer loop
      vertex 46 -45.5 -1
      vertex 24 -45.5 1
      vertex 46 -45.5 1
    endloop
  endfacet
  facet normal 0 1 0
    outer loop
      vertex 24 -45.5 1
      vertex 46 -45.5 -1
      vertex 24 -45.5 -1
    endloop
  endfacet
  facet normal 0 -1 0
    outer loop
      vertex 24 -23.5 -1
      vertex 46 -23.5 1
      vertex 24 -23.5 1
    endloop
  endfacet
  facet normal 0 -1 -0
    outer loop
      vertex 46 -23.5 1
      vertex 24 -23.5 -1
      vertex 46 -23.5 -1
    endloop
  endfacet
  facet normal 1 -0 0
    outer loop
      vertex 48 -45.5 1
      vertex 48 -23.5 -1
      vertex 48 -23.5 1
    endloop
  endfacet
  facet normal 1 0 0
    outer loop
      vertex 48 -23.5 -1
      vertex 48 -45.5 1
      vertex 48 -45.5 -1
    endloop
  endfacet
  facet normal -1 0 0
    outer loop
      vertex 70 -45.5 -1
      vertex 70 -23.5 1
      vertex 70 -23.5 -1
    endloop
  endfacet
  facet normal -1 -0 0
    outer loop
      vertex 70 -23.5 1
      vertex 70 -45.5 -1
      vertex 70 -45.5 1
    endloop
  endfacet
  facet normal 0 -1 0
    outer loop
      vertex 48 -23.5 -1
      vertex 70 -23.5 1
      vertex 48 -23.5 1
    endloop
  endfacet
  facet normal 0 -1 -0
    outer loop
      vertex 70 -23.5 1
      vertex 48 -23.5 -1
      vertex 70 -23.5 -1
    endloop
  endfacet
  facet normal 0 1 -0
    outer loop
      vertex 70 -45.5 -1
      vertex 48 -45.5 1
      vertex 70 -45.5 1
    endloop
  endfacet
  facet normal 0 1 0
    outer loop
      vertex 48 -45.5 1
      vertex 70 -45.5 -1
      vertex 48 -45.5 -1
    endloop
  endfacet
  facet normal 1 -0 0
    outer loop
      vertex -72 -21.5 1
      vertex -72 0.5 -1
      vertex -72 0.5 1
    endloop
  endfacet
  facet normal 1 0 0
    outer loop
      vertex -72 0.5 -1
      vertex -72 -21.5 1
      vertex -72 -21.5 -1
    endloop
  endfacet
  facet normal -1 0 0
    outer loop
      vertex -50 -21.5 -1
      vertex -50 0.5 1
      vertex -50 0.5 -1
    endloop
  endfacet
  facet normal -1 -0 0
    outer loop
      vertex -50 0.5 1
      vertex -50 -21.5 -1
      vertex -50 -21.5 1
    endloop
  endfacet
  facet normal 0 1 -0
    outer loop
      vertex -50 -21.5 -1
      vertex -72 -21.5 1
      vertex -50 -21.5 1
    endloop
  endfacet
  facet normal 0 1 0
    outer loop
      vertex -72 -21.5 1
      vertex -50 -21.5 -1
      vertex -72 -21.5 -1
    endloop
  endfacet
  facet normal 0 -1 0
    outer loop
      vertex -72 0.5 -1
      vertex -50 0.5 1
      vertex -72 0.5 1
    endloop
  endfacet
  facet normal 0 -1 -0
    outer loop
      vertex -50 0.5 1
      vertex -72 0.5 -1
      vertex -50 0.5 -1
    endloop
  endfacet
  facet normal 1 -0 0
    outer loop
      vertex -48 -21.5 1
      vertex -48 0.5 -1
      vertex -48 0.5 1
    endloop
  endfacet
  facet normal 1 0 0
    outer loop
      vertex -48 0.5 -1
      vertex -48 -21.5 1
      vertex -48 -21.5 -1
    endloop
  endfacet
  facet normal -1 0 0
    outer loop
      vertex -26 -21.5 -1
      vertex -26 0.5 1
      vertex -26 0.5 -1
    endloop
  endfacet
  facet normal -1 -0 0
    outer loop
      vertex -26 0.5 1
      vertex -26 -21.5 -1
      vertex -26 -21.5 1
    endloop
  endfacet
  facet normal 0 1 -0
    outer loop
      vertex -26 -21.5 -1
      vertex -48 -21.5 1
      vertex -26 -21.5 1
    endloop
  endfacet
  facet normal 0 1 0
    outer loop
      vertex -48 -21.5 1
      vertex -26 -21.5 -1
      vertex -48 -21.5 -1
    endloop
  endfacet
  facet normal 0 -1 0
    outer loop
      vertex -48 0.5 -1
      vertex -26 0.5 1
      vertex -48 0.5 1
    endloop
  endfacet
  facet normal 0 -1 -0
    outer loop
      vertex -26 0.5 1
      vertex -48 0.5 -1
      vertex -26 0.5 -1
    endloop
  endfacet
  facet normal 1 -0 0
    outer loop
      vertex -24 -21.5 1
      vertex -24 0.5 -1
      vertex -24 0.5 1
    endloop
  endfacet
  facet normal 1 0 0
    outer loop
      vertex -24 0.5 -1
      vertex -24 -21.5 1
      vertex -24 -21.5 -1
    endloop
  endfacet
  facet normal -1 0 0
    outer loop
      vertex -2 -21.5 -1
      vertex -2 0.5 1
      vertex -2 0.5 -1
    endloop
  endfacet
  facet normal -1 -0 0
    outer loop
      vertex -2 0.5 1
      vertex -2 -21.5 -1
      vertex -2 -21.5 1
    endloop
  endfacet
  facet normal 0 1 -0
    outer loop
      vertex -2 -21.5 -1
      vertex -24 -21.5 1
      vertex -2 -21.5 1
    endloop
  endfacet
  facet normal 0 1 0
    outer loop
      vertex -24 -21.5 1
      vertex -2 -21.5 -1
      vertex -24 -21.5 -1
    endloop
  endfacet
  facet normal 0 -1 0
    outer loop
      vertex -24 0.5 -1
      vertex -2 0.5 1
      vertex -24 0.5 1
    endloop
  endfacet
  facet normal 0 -1 -0
    outer loop
      vertex -2 0.5 1
      vertex -24 0.5 -1
      vertex -2 0.5 -1
    endloop
  endfacet
  facet normal 1 -0 0
    outer loop
      vertex 0 -21.5 1
      vertex 0 0.5 -1
      vertex 0 0.5 1
    endloop
  endfacet
  facet normal 1 0 0
    outer loop
      vertex 0 0.5 -1
      vertex 0 -21.5 1
      vertex 0 -21.5 -1
    endloop
  endfacet
  facet normal -1 0 0
    outer loop
      vertex 22 -21.5 -1
      vertex 22 0.5 1
      vertex 22 0.5 -1
    endloop
  endfacet
  facet normal -1 -0 0
    outer loop
      vertex 22 0.5 1
      vertex 22 -21.5 -1
      vertex 22 -21.5 1
    endloop
  endfacet
  facet normal 0 -1 0
    outer loop
      vertex 0 0.5 -1
      vertex 22 0.5 1
      vertex 0 0.5 1
    endloop
  endfacet
  facet normal 0 -1 -0
    outer loop
      vertex 22 0.5 1
      vertex 0 0.5 -1
      vertex 22 0.5 -1
    endloop
  endfacet
  facet normal 0 1 -0
    outer loop
      vertex 22 -21.5 -1
      vertex 0 -21.5 1
      vertex 22 -21.5 1
    endloop
  endfacet
  facet normal 0 1 0
    outer loop
      vertex 0 -21.5 1
      vertex 22 -21.5 -1
      vertex 0 -21.5 -1
    endloop
  endfacet
  facet normal 1 -0 0
    outer loop
      vertex 24 -21.5 1
      vertex 24 0.5 -1
      vertex 24 0.5 1
    endloop
  endfacet
  facet normal 1 0 0
    outer loop
      vertex 24 0.5 -1
      vertex 24 -21.5 1
      vertex 24 -21.5 -1
    endloop
  endfacet
  facet normal -1 0 0
    outer loop
      vertex 46 -21.5 -1
      vertex 46 0.5 1
      vertex 46 0.5 -1
    endloop
  endfacet
  facet normal -1 -0 0
    outer loop
      vertex 46 0.5 1
      vertex 46 -21.5 -1
      vertex 46 -21.5 1
    endloop
  endfacet
  facet normal 0 -1 0
    outer loop
      vertex 24 0.5 -1
      vertex 46 0.5 1
      vertex 24 0.5 1
    endloop
  endfacet
  facet normal 0 -1 -0
    outer loop
      vertex 46 0.5 1
      vertex 24 0.5 -1
      vertex 46 0.5 -1
    endloop
  endfacet
  facet normal 0 1 -0
    outer loop
      vertex 46 -21.5 -1
      vertex 24 -21.5 1
      vertex 46 -21.5 1
    endloop
  endfacet
  facet normal 0 1 0
    outer loop
      vertex 24 -21.5 1
      vertex 46 -21.5 -1
      vertex 24 -21.5 -1
    endloop
  endfacet
  facet normal 1 -0 0
    outer loop
      vertex 48 -21.5 1
      vertex 48 0.5 -1
      vertex 48 0.5 1
    endloop
  endfacet
  facet normal 1 0 0
    outer loop
      vertex 48 0.5 -1
      vertex 48 -21.5 1
      vertex 48 -21.5 -1
    endloop
  endfacet
  facet normal -1 0 0
    outer loop
      vertex 70 -21.5 -1
      vertex 70 0.5 1
      vertex 70 0.5 -1
    endloop
  endfacet
  facet normal -1 -0 0
    outer loop
      vertex 70 0.5 1
      vertex 70 -21.5 -1
      vertex 70 -21.5 1
    endloop
  endfacet
  facet normal 0 -1 0
    outer loop
      vertex 48 0.5 -1
      vertex 70 0.5 1
      vertex 48 0.5 1
    endloop
  endfacet
  facet normal 0 -1 -0
    outer loop
      vertex 70 0.5 1
      vertex 48 0.5 -1
      vertex 70 0.5 -1
    endloop
  endfacet
  facet normal 0 1 -0
    outer loop
      vertex 70 -21.5 -1
      vertex 48 -21.5 1
      vertex 70 -21.5 1
    endloop
  endfacet
  facet normal 0 1 0
    outer loop
      vertex 48 -21.5 1
      vertex 70 -21.5 -1
      vertex 48 -21.5 -1
    endloop
  endfacet
  facet normal 1 -0 0
    outer loop
      vertex -72 2.5 1
      vertex -72 24.5 -1
      vertex -72 24.5 1
    endloop
  endfacet
  facet normal 1 0 0
    outer loop
      vertex -72 24.5 -1
      vertex -72 2.5 1
      vertex -72 2.5 -1
    endloop
  endfacet
  facet normal -1 0 0
    outer loop
      vertex -50 2.5 -1
      vertex -50 24.5 1
      vertex -50 24.5 -1
    endloop
  endfacet
  facet normal -1 -0 0
    outer loop
      vertex -50 24.5 1
      vertex -50 2.5 -1
      vertex -50 2.5 1
    endloop
  endfacet
  facet normal 0 -1 0
    outer loop
      vertex -72 24.5 -1
      vertex -50 24.5 1
      vertex -72 24.5 1
    endloop
  endfacet
  facet normal 0 -1 -0
    outer loop
      vertex -50 24.5 1
      vertex -72 24.5 -1
      vertex -50 24.5 -1
    endloop
  endfacet
  facet normal 0 1 -0
    outer loop
      vertex -50 2.5 -1
      vertex -72 2.5 1
      vertex -50 2.5 1
    endloop
  endfacet
  facet normal 0 1 0
    outer loop
      vertex -72 2.5 1
      vertex -50 2.5 -1
      vertex -72 2.5 -1
    endloop
  endfacet
  facet normal 1 -0 0
    outer loop
      vertex -48 2.5 1
      vertex -48 24.5 -1
      vertex -48 24.5 1
    endloop
  endfacet
  facet normal 1 0 0
    outer loop
      vertex -48 24.5 -1
      vertex -48 2.5 1
      vertex -48 2.5 -1
    endloop
  endfacet
  facet normal -1 0 0
    outer loop
      vertex -26 2.5 -1
      vertex -26 24.5 1
      vertex -26 24.5 -1
    endloop
  endfacet
  facet normal -1 -0 0
    outer loop
      vertex -26 24.5 1
      vertex -26 2.5 -1
      vertex -26 2.5 1
    endloop
  endfacet
  facet normal 0 -1 0
    outer loop
      vertex -48 24.5 -1
      vertex -26 24.5 1
      vertex -48 24.5 1
    endloop
  endfacet
  facet normal 0 -1 -0
    outer loop
      vertex -26 24.5 1
      vertex -48 24.5 -1
      vertex -26 24.5 -1
    endloop
  endfacet
  facet normal 0 1 -0
    outer loop
      vertex -26 2.5 -1
      vertex -48 2.5 1
      vertex -26 2.5 1
    endloop
  endfacet
  facet normal 0 1 0
    outer loop
      vertex -48 2.5 1
      vertex -26 2.5 -1
      vertex -48 2.5 -1
    endloop
  endfacet
  facet normal 1 -0 0
    outer loop
      vertex -24 2.5 1
      vertex -24 24.5 -1
      vertex -24 24.5 1
    endloop
  endfacet
  facet normal 1 0 0
    outer loop
      vertex -24 24.5 -1
      vertex -24 2.5 1
      vertex -24 2.5 -1
    endloop
  endfacet
  facet normal -1 0 0
    outer loop
      vertex -2 2.5 -1
      vertex -2 24.5 1
      vertex -2 24.5 -1
    endloop
  endfacet
  facet normal -1 -0 0
    outer loop
      vertex -2 24.5 1
      vertex -2 2.5 -1
      vertex -2 2.5 1
    endloop
  endfacet
  facet normal 0 1 -0
    outer loop
      vertex -2 2.5 -1
      vertex -24 2.5 1
      vertex -2 2.5 1
    endloop
  endfacet
  facet normal 0 1 0
    outer loop
      vertex -24 2.5 1
      vertex -2 2.5 -1
      vertex -24 2.5 -1
    endloop
  endfacet
  facet normal 0 -1 0
    outer loop
      vertex -24 24.5 -1
      vertex -2 24.5 1
      vertex -24 24.5 1
    endloop
  endfacet
  facet normal 0 -1 -0
    outer loop
      vertex -2 24.5 1
      vertex -24 24.5 -1
      vertex -2 24.5 -1
    endloop
  endfacet
  facet normal 1 -0 0
    outer loop
      vertex 0 2.5 1
      vertex 0 24.5 -1
      vertex 0 24.5 1
    endloop
  endfacet
  facet normal 1 0 0
    outer loop
      vertex 0 24.5 -1
      vertex 0 2.5 1
      vertex 0 2.5 -1
    endloop
  endfacet
  facet normal -1 0 0
    outer loop
      vertex 22 2.5 -1
      vertex 22 24.5 1
      vertex 22 24.5 -1
    endloop
  endfacet
  facet normal -1 -0 0
    outer loop
      vertex 22 24.5 1
      vertex 22 2.5 -1
      vertex 22 2.5 1
    endloop
  endfacet
  facet normal 0 1 -0
    outer loop
      vertex 22 2.5 -1
      vertex 0 2.5 1
      vertex 22 2.5 1
    endloop
  endfacet
  facet normal 0 1 0
    outer loop
      vertex 0 2.5 1
      vertex 22 2.5 -1
      vertex 0 2.5 -1
    endloop
  endfacet
  facet normal 0 -1 0
    outer loop
      vertex 0 24.5 -1
      vertex 22 24.5 1
      vertex 0 24.5 1
    endloop
  endfacet
  facet normal 0 -1 -0
    outer loop
      vertex 22 24.5 1
      vertex 0 24.5 -1
      vertex 22 24.5 -1
    endloop
  endfacet
  facet normal 1 -0 0
    outer loop
      vertex 24 2.5 1
      vertex 24 24.5 -1
      vertex 24 24.5 1
    endloop
  endfacet
  facet normal 1 0 0
    outer loop
      vertex 24 24.5 -1
      vertex 24 2.5 1
      vertex 24 2.5 -1
    endloop
  endfacet
  facet normal -1 0 0
    outer loop
      vertex 46 2.5 -1
      vertex 46 24.5 1
      vertex 46 24.5 -1
    endloop
  endfacet
  facet normal -1 -0 0
    outer loop
      vertex 46 24.5 1
      vertex 46 2.5 -1
      vertex 46 2.5 1
    endloop
  endfacet
  facet normal 0 1 -0
    outer loop
      vertex 46 2.5 -1
      vertex 24 2.5 1
      vertex 46 2.5 1
    endloop
  endfacet
  facet normal 0 1 0
    outer loop
      vertex 24 2.5 1
      vertex 46 2.5 -1
      vertex 24 2.5 -1
    endloop
  endfacet
  facet normal 0 -1 0
    outer loop
      vertex 24 24.5 -1
      vertex 46 24.5 1
      vertex 24 24.5 1
    endloop
  endfacet
  facet normal 0 -1 -0
    outer loop
      vertex 46 24.5 1
      vertex 24 24.5 -1
      vertex 46 24.5 -1
    endloop
  endfacet
  facet normal 1 -0 0
    outer loop
      vertex 48 2.5 1
      vertex 48 24.5 -1
      vertex 48 24.5 1
    endloop
  endfacet
  facet normal 1 0 0
    outer loop
      vertex 48 24.5 -1
      vertex 48 2.5 1
      vertex 48 2.5 -1
    endloop
  endfacet
  facet normal -1 0 0
    outer loop
      vertex 70 2.5 -1
      vertex 70 24.5 1
      vertex 70 24.5 -1
    endloop
  endfacet
  facet normal -1 -0 0
    outer loop
      vertex 70 24.5 1
      vertex 70 2.5 -1
      vertex 70 2.5 1
    endloop
  endfacet
  facet normal 0 -1 0
    outer loop
      vertex 48 24.5 -1
      vertex 70 24.5 1
      vertex 48 24.5 1
    endloop
  endfacet
  facet normal 0 -1 -0
    outer loop
      vertex 70 24.5 1
      vertex 48 24.5 -1
      vertex 70 24.5 -1
    endloop
  endfacet
  facet normal 0 1 -0
    outer loop
      vertex 70 2.5 -1
      vertex 48 2.5 1
      vertex 70 2.5 1
    endloop
  endfacet
  facet normal 0 1 0
    outer loop
      vertex 48 2.5 1
      vertex 70 2.5 -1
      vertex 48 2.5 -1
    endloop
  endfacet
  facet normal 1 -0 0
    outer loop
      vertex -72 26.5 1
      vertex -72 48.5 -1
      vertex -72 48.5 1
    endloop
  endfacet
  facet normal 1 0 0
    outer loop
      vertex -72 48.5 -1
      vertex -72 26.5 1
      vertex -72 26.5 -1
    endloop
  endfacet
  facet normal -1 0 0
    outer loop
      vertex -50 26.5 -1
      vertex -50 48.5 1
      vertex -50 48.5 -1
    endloop
  endfacet
  facet normal -1 -0 0
    outer loop
      vertex -50 48.5 1
      vertex -50 26.5 -1
      vertex -50 26.5 1
    endloop
  endfacet
  facet normal 0 1 -0
    outer loop
      vertex -50 26.5 -1
      vertex -72 26.5 1
      vertex -50 26.5 1
    endloop
  endfacet
  facet normal 0 1 0
    outer loop
      vertex -72 26.5 1
      vertex -50 26.5 -1
      vertex -72 26.5 -1
    endloop
  endfacet
  facet normal 0 -1 0
    outer loop
      vertex -72 48.5 -1
      vertex -50 48.5 1
      vertex -72 48.5 1
    endloop
  endfacet
  facet normal 0 -1 -0
    outer loop
      vertex -50 48.5 1
      vertex -72 48.5 -1
      vertex -50 48.5 -1
    endloop
  endfacet
  facet normal 1 -0 0
    outer loop
      vertex -48 26.5 1
      vertex -48 48.5 -1
      vertex -48 48.5 1
    endloop
  endfacet
  facet normal 1 0 0
    outer loop
      vertex -48 48.5 -1
      vertex -48 26.5 1
      vertex -48 26.5 -1
    endloop
  endfacet
  facet normal -1 0 0
    outer loop
      vertex -26 26.5 -1
      vertex -26 48.5 1
      vertex -26 48.5 -1
    endloop
  endfacet
  facet normal -1 -0 0
    outer loop
      vertex -26 48.5 1
      vertex -26 26.5 -1
      vertex -26 26.5 1
    endloop
  endfacet
  facet normal 0 1 -0
    outer loop
      vertex -26 26.5 -1
      vertex -48 26.5 1
      vertex -26 26.5 1
    endloop
  endfacet
  facet normal 0 1 0
    outer loop
      vertex -48 26.5 1
      vertex -26 26.5 -1
      vertex -48 26.5 -1
    endloop
  endfacet
  facet normal 0 -1 0
    outer loop
      vertex -48 48.5 -1
      vertex -26 48.5 1
      vertex -48 48.5 1
    endloop
  endfacet
  facet normal 0 -1 -0
    outer loop
      vertex -26 48.5 1
      vertex -48 48.5 -1
      vertex -26 48.5 -1
    endloop
  endfacet
  facet normal 1 -0 0
    outer loop
      vertex -24 26.5 1
      vertex -24 48.5 -1
      vertex -24 48.5 1
    endloop
  endfacet
  facet normal 1 0 0
    outer loop
      vertex -24 48.5 -1
      vertex -24 26.5 1
      vertex -24 26.5 -1
    endloop
  endfacet
  facet normal -1 0 0
    outer loop
      vertex -2 26.5 -1
      vertex -2 48.5 1
      vertex -2 48.5 -1
    endloop
  endfacet
  facet normal -1 -0 0
    outer loop
      vertex -2 48.5 1
      vertex -2 26.5 -1
      vertex -2 26.5 1
    endloop
  endfacet
  facet normal 0 -1 0
    outer loop
      vertex -24 48.5 -1
      vertex -2 48.5 1
      vertex -24 48.5 1
    endloop
  endfacet
  facet normal 0 -1 -0
    outer loop
      vertex -2 48.5 1
      vertex -24 48.5 -1
      vertex -2 48.5 -1
    endloop
  endfacet
  facet normal 0 1 -0
    outer loop
      vertex -2 26.5 -1
      vertex -24 26.5 1
      vertex -2 26.5 1
    endloop
  endfacet
  facet normal 0 1 0
    outer loop
      vertex -24 26.5 1
      vertex -2 26.5 -1
      vertex -24 26.5 -1
    endloop
  endfacet
  facet normal 1 -0 0
    outer loop
      vertex 0 26.5 1
      vertex 0 48.5 -1
      vertex 0 48.5 1
    endloop
  endfacet
  facet normal 1 0 0
    outer loop
      vertex 0 48.5 -1
      vertex 0 26.5 1
      vertex 0 26.5 -1
    endloop
  endfacet
  facet normal -1 0 0
    outer loop
      vertex 22 26.5 -1
      vertex 22 48.5 1
      vertex 22 48.5 -1
    endloop
  endfacet
  facet normal -1 -0 0
    outer loop
      vertex 22 48.5 1
      vertex 22 26.5 -1
      vertex 22 26.5 1
    endloop
  endfacet
  facet normal 0 1 -0
    outer loop
      vertex 22 26.5 -1
      vertex 0 26.5 1
      vertex 22 26.5 1
    endloop
  endfacet
  facet normal 0 1 0
    outer loop
      vertex 0 26.5 1
      vertex 22 26.5 -1
      vertex 0 26.5 -1
    endloop
  endfacet
  facet normal 0 -1 0
    outer loop
      vertex 0 48.5 -1
      vertex 22 48.5 1
      vertex 0 48.5 1
    endloop
  endfacet
  facet normal 0 -1 -0
    outer loop
      vertex 22 48.5 1
      vertex 0 48.5 -1
      vertex 22 48.5 -1
    endloop
  endfacet
  facet normal 1 -0 0
    outer loop
      vertex 24 26.5 1
      vertex 24 48.5 -1
      vertex 24 48.5 1
    endloop
  endfacet
  facet normal 1 0 0
    outer loop
      vertex 24 48.5 -1
      vertex 24 26.5 1
      vertex 24 26.5 -1
    endloop
  endfacet
  facet normal -1 0 0
    outer loop
      vertex 46 26.5 -1
      vertex 46 48.5 1
      vertex 46 48.5 -1
    endloop
  endfacet
  facet normal -1 -0 0
    outer loop
      vertex 46 48.5 1
      vertex 46 26.5 -1
      vertex 46 26.5 1
    endloop
  endfacet
  facet normal 0 -1 0
    outer loop
      vertex 24 48.5 -1
      vertex 46 48.5 1
      vertex 24 48.5 1
    endloop
  endfacet
  facet normal 0 -1 -0
    outer loop
      vertex 46 48.5 1
      vertex 24 48.5 -1
      vertex 46 48.5 -1
    endloop
  endfacet
  facet normal 0 1 -0
    outer loop
      vertex 46 26.5 -1
      vertex 24 26.5 1
      vertex 46 26.5 1
    endloop
  endfacet
  facet normal 0 1 0
    outer loop
      vertex 24 26.5 1
      vertex 46 26.5 -1
      vertex 24 26.5 -1
    endloop
  endfacet
  facet normal 1 -0 0
    outer loop
      vertex 48 26.5 1
      vertex 48 48.5 -1
      vertex 48 48.5 1
    endloop
  endfacet
  facet normal 1 0 0
    outer loop
      vertex 48 48.5 -1
      vertex 48 26.5 1
      vertex 48 26.5 -1
    endloop
  endfacet
  facet normal -1 0 0
    outer loop
      vertex 70 26.5 -1
      vertex 70 48.5 1
      vertex 70 48.5 -1
    endloop
  endfacet
  facet normal -1 -0 0
    outer loop
      vertex 70 48.5 1
      vertex 70 26.5 -1
      vertex 70 26.5 1
    endloop
  endfacet
  facet normal 0 -1 0
    outer loop
      vertex 48 48.5 -1
      vertex 70 48.5 1
      vertex 48 48.5 1
    endloop
  endfacet
  facet normal 0 -1 -0
    outer loop
      vertex 70 48.5 1
      vertex 48 48.5 -1
      vertex 70 48.5 -1
    endloop
  endfacet
  facet normal 0 1 -0
    outer loop
      vertex 70 26.5 -1
      vertex 48 26.5 1
      vertex 70 26.5 1
    endloop
  endfacet
  facet normal 0 1 0
    outer loop
      vertex 48 26.5 1
      vertex 70 26.5 -1
      vertex 48 26.5 -1
    endloop
  endfacet
endsolid OpenSCAD_Model
