solid OpenSCAD_Model
  facet normal -1 0 0
    outer loop
      vertex -80 53 -1
      vertex -80 51 3
      vertex -80 53 11
    endloop
  endfacet
  facet normal -1 0 0
    outer loop
      vertex -80 53 -1
      vertex -80 49 1
      vertex -80 51 3
    endloop
  endfacet
  facet normal -1 0 0
    outer loop
      vertex -80 53 -1
      vertex -80 -47 1
      vertex -80 49 1
    endloop
  endfacet
  facet normal -1 0 0
    outer loop
      vertex -80 -47 1
      vertex -80 -49 3
      vertex -80 -47 3
    endloop
  endfacet
  facet normal -1 0 0
    outer loop
      vertex -80 -51 -1
      vertex -80 -47 1
      vertex -80 53 -1
    endloop
  endfacet
  facet normal -1 0 0
    outer loop
      vertex -80 -51 -1
      vertex -80 -49 3
      vertex -80 -47 1
    endloop
  endfacet
  facet normal -1 0 0
    outer loop
      vertex -80 -51 7
      vertex -80 -49 3
      vertex -80 -51 -1
    endloop
  endfacet
  facet normal -1 0 0
    outer loop
      vertex -80 -49 3
      vertex -80 -51 7
      vertex -80 -49 7
    endloop
  endfacet
  facet normal -1 0 0
    outer loop
      vertex -80 51 7
      vertex -80 53 11
      vertex -80 51 3
    endloop
  endfacet
  facet normal -1 0 0
    outer loop
      vertex -80 49 11
      vertex -80 51 7
      vertex -80 49 7
    endloop
  endfacet
  facet normal -1 0 0
    outer loop
      vertex -80 51 7
      vertex -80 49 11
      vertex -80 53 11
    endloop
  endfacet
  facet normal -1 -0 0
    outer loop
      vertex -80 51 3
      vertex -80 49 1
      vertex -80 49 3
    endloop
  endfacet
  facet normal -0 0 1
    outer loop
      vertex -80 49 1
      vertex 80 -47 1
      vertex 80 49 1
    endloop
  endfacet
  facet normal 0 0 1
    outer loop
      vertex 80 -47 1
      vertex -80 49 1
      vertex -80 -47 1
    endloop
  endfacet
  facet normal 1 0 0
    outer loop
      vertex 80 -49 7
      vertex 80 -51 7
      vertex 80 -49 3
    endloop
  endfacet
  facet normal 1 0 0
    outer loop
      vertex 80 -47 3
      vertex 80 -49 3
      vertex 80 -47 1
    endloop
  endfacet
  facet normal 1 0 0
    outer loop
      vertex 80 53 11
      vertex 80 51 7
      vertex 80 53 -1
    endloop
  endfacet
  facet normal 1 -0 0
    outer loop
      vertex 80 49 11
      vertex 80 51 7
      vertex 80 53 11
    endloop
  endfacet
  facet normal 1 0 0
    outer loop
      vertex 80 51 7
      vertex 80 49 11
      vertex 80 49 7
    endloop
  endfacet
  facet normal 1 -0 0
    outer loop
      vertex 80 51 3
      vertex 80 53 -1
      vertex 80 51 7
    endloop
  endfacet
  facet normal 1 0 0
    outer loop
      vertex 80 49 1
      vertex 80 51 3
      vertex 80 49 3
    endloop
  endfacet
  facet normal 1 0 0
    outer loop
      vertex 80 51 3
      vertex 80 49 1
      vertex 80 53 -1
    endloop
  endfacet
  facet normal 1 -0 0
    outer loop
      vertex 80 -47 1
      vertex 80 53 -1
      vertex 80 49 1
    endloop
  endfacet
  facet normal 1 0 0
    outer loop
      vertex 80 -47 1
      vertex 80 -51 -1
      vertex 80 53 -1
    endloop
  endfacet
  facet normal 1 0 0
    outer loop
      vertex 80 -49 3
      vertex 80 -51 -1
      vertex 80 -47 1
    endloop
  endfacet
  facet normal 1 0 0
    outer loop
      vertex 80 -51 -1
      vertex 80 -49 3
      vertex 80 -51 7
    endloop
  endfacet
  facet normal 0 -1 0
    outer loop
      vertex -80 51 3
      vertex 80 51 7
      vertex -80 51 7
    endloop
  endfacet
  facet normal 0 -1 -0
    outer loop
      vertex 80 51 7
      vertex -80 51 3
      vertex 80 51 3
    endloop
  endfacet
  facet normal 0 0 -1
    outer loop
      vertex -80 -51 -1
      vertex 80 53 -1
      vertex 80 -51 -1
    endloop
  endfacet
  facet normal -0 0 -1
    outer loop
      vertex 80 53 -1
      vertex -80 -51 -1
      vertex -80 53 -1
    endloop
  endfacet
  facet normal 0 -1 0
    outer loop
      vertex -80 -51 -1
      vertex 80 -51 7
      vertex -80 -51 7
    endloop
  endfacet
  facet normal 0 -1 -0
    outer loop
      vertex 80 -51 7
      vertex -80 -51 -1
      vertex 80 -51 -1
    endloop
  endfacet
  facet normal 0 0 -1
    outer loop
      vertex -80 49 7
      vertex 80 51 7
      vertex 80 49 7
    endloop
  endfacet
  facet normal -0 0 -1
    outer loop
      vertex 80 51 7
      vertex -80 49 7
      vertex -80 51 7
    endloop
  endfacet
  facet normal 0 1 -0
    outer loop
      vertex 80 53 -1
      vertex -80 53 11
      vertex 80 53 11
    endloop
  endfacet
  facet normal 0 1 0
    outer loop
      vertex -80 53 11
      vertex 80 53 -1
      vertex -80 53 -1
    endloop
  endfacet
  facet normal -0 0 1
    outer loop
      vertex -80 51 3
      vertex 80 49 3
      vertex 80 51 3
    endloop
  endfacet
  facet normal 0 0 1
    outer loop
      vertex 80 49 3
      vertex -80 51 3
      vertex -80 49 3
    endloop
  endfacet
  facet normal 0 -1 0
    outer loop
      vertex -80 49 1
      vertex 80 49 3
      vertex -80 49 3
    endloop
  endfacet
  facet normal 0 -1 -0
    outer loop
      vertex 80 49 3
      vertex -80 49 1
      vertex 80 49 1
    endloop
  endfacet
  facet normal -0 0 1
    outer loop
      vertex -80 53 11
      vertex 80 49 11
      vertex 80 53 11
    endloop
  endfacet
  facet normal 0 0 1
    outer loop
      vertex 80 49 11
      vertex -80 53 11
      vertex -80 49 11
    endloop
  endfacet
  facet normal 0 -1 0
    outer loop
      vertex -80 49 7
      vertex 80 49 11
      vertex -80 49 11
    endloop
  endfacet
  facet normal 0 -1 -0
    outer loop
      vertex 80 49 11
      vertex -80 49 7
      vertex 80 49 7
    endloop
  endfacet
  facet normal -0 0 1
    outer loop
      vertex -80 -49 7
      vertex 80 -51 7
      vertex 80 -49 7
    endloop
  endfacet
  facet normal 0 0 1
    outer loop
      vertex 80 -51 7
      vertex -80 -49 7
      vertex -80 -51 7
    endloop
  endfacet
  facet normal 0 1 -0
    outer loop
      vertex 80 -49 3
      vertex -80 -49 7
      vertex 80 -49 7
    endloop
  endfacet
  facet normal 0 1 0
    outer loop
      vertex -80 -49 7
      vertex 80 -49 3
      vertex -80 -49 3
    endloop
  endfacet
  facet normal -0 0 1
    outer loop
      vertex -80 -47 3
      vertex 80 -49 3
      vertex 80 -47 3
    endloop
  endfacet
  facet normal 0 0 1
    outer loop
      vertex 80 -49 3
      vertex -80 -47 3
      vertex -80 -49 3
    endloop
  endfacet
  facet normal 0 1 -0
    outer loop
      vertex 80 -47 1
      vertex -80 -47 3
      vertex 80 -47 3
    endloop
  endfacet
  facet normal 0 1 0
    outer loop
      vertex -80 -47 3
      vertex 80 -47 1
      vertex -80 -47 1
    endloop
  endfacet
endsolid OpenSCAD_Model
